<svg width="530" height="446" viewBox="0 0 530 446" fill="none" xmlns="http://www.w3.org/2000/svg">
<g opacity="0.5">
<path d="M315.77 344.687C405.932 251.314 421.469 178.473 424.504 88.7692C425.321 64.0871 422.358 35.3157 419.347 11.437C394.872 14.5547 369.068 21.4267 344.585 28.2844C255.872 53.0281 168.665 114.571 117.417 199.832C76.9173 267.039 68.7005 352.048 104.372 408.047C104.372 408.047 225.664 438.201 315.77 344.687Z" stroke="#E4E9DE" stroke-width="8" stroke-miterlimit="10"/>
<path d="M104.371 408.048L418.841 13.0912" stroke="#E4E9DE" stroke-width="8" stroke-miterlimit="10"/>
<path d="M125.178 395.274L228.651 400.185" stroke="#F6FBF0" stroke-width="8" stroke-miterlimit="10"/>
<path d="M268.671 381.903L143.895 375.981L142.373 375.909L141.54 375.9" stroke="#F6FBF0" stroke-width="8" stroke-miterlimit="10"/>
<path d="M295.828 362.981L159.423 356.6L158.534 356.45" stroke="#F6FBF0" stroke-width="8" stroke-miterlimit="10"/>
<path d="M316.61 343.88L176.128 337.259L175.24 337.109" stroke="#F6FBF0" stroke-width="8" stroke-miterlimit="10"/>
<path d="M334.295 324.493L192.436 317.746L191.603 317.737" stroke="#E4E9DE" stroke-width="8" stroke-miterlimit="10"/>
<path d="M365.152 285.644L224.471 278.936L223.638 278.928" stroke="#E4E9DE" stroke-width="8" stroke-miterlimit="10"/>
<path d="M377.781 266.063L240.143 259.5L239.31 259.492" stroke="#E4E9DE" stroke-width="8" stroke-miterlimit="10"/>
<path d="M388.889 246.41L255.528 240.173L254.695 240.165" stroke="#E4E9DE" stroke-width="8" stroke-miterlimit="10"/>
<path d="M398.188 226.795L270.713 220.76L270.024 220.697" stroke="#E4E9DE" stroke-width="8" stroke-miterlimit="10"/>
<path d="M405.909 206.966L271.859 200.666L270.97 200.516" stroke="#E4E9DE" stroke-width="8" stroke-miterlimit="10"/>
<path d="M411.907 186.978L286.874 180.829L286.186 180.766L286.042 180.82" stroke="#E4E9DE" stroke-width="8" stroke-miterlimit="10"/>
<path d="M416.44 167.059L302.659 161.675L302.171 161.698L301.338 161.689" stroke="#E4E9DE" stroke-width="8" stroke-miterlimit="10"/>
<path d="M419.795 147.1L316.811 142.166L315.978 142.158" stroke="#E4E9DE" stroke-width="8" stroke-miterlimit="10"/>
<path d="M422.118 127.046L332.829 122.762L331.996 122.753" stroke="#E4E9DE" stroke-width="8" stroke-miterlimit="10"/>
<path d="M423.751 106.928L347.868 103.404L347.035 103.395" stroke="#E4E9DE" stroke-width="8" stroke-miterlimit="10"/>
<path d="M424.552 86.8012L362.709 83.9585L362.02 83.895" stroke="#E4E9DE" stroke-width="8" stroke-miterlimit="10"/>
<path d="M424.319 66.5799L377.204 64.4824L376.515 64.4189" stroke="#E4E9DE" stroke-width="8" stroke-miterlimit="10"/>
<path d="M423.11 46.4034L394.543 45.063L394.198 45.0312" stroke="#E4E9DE" stroke-width="8" stroke-miterlimit="10"/>
<path d="M88.7057 268.738L127.444 392.626" stroke="#F6FBF0" stroke-width="8" stroke-miterlimit="10"/>
<path d="M144.59 378.156L143.893 375.983L143.533 374.657L99.8367 234.941" stroke="#F6FBF0" stroke-width="8" stroke-miterlimit="10"/>
<path d="M159.759 357.448L159.423 356.6L113.004 207.519" stroke="#F6FBF0" stroke-width="8" stroke-miterlimit="10"/>
<path d="M127.307 184.216L175.039 337.023" stroke="#F6FBF0" stroke-width="8" stroke-miterlimit="10"/>
<path d="M142.476 163.509L191.161 318.717" stroke="#F6FBF0" stroke-width="8" stroke-miterlimit="10"/>
<path d="M158.23 144.692L207.212 298.975" stroke="#E4E9DE" stroke-width="8" stroke-miterlimit="10"/>
<path d="M174.512 127.624L223.662 279.406" stroke="#E4E9DE" stroke-width="8" stroke-miterlimit="10"/>
<path d="M191.353 111.968L239.31 259.491" stroke="#E4E9DE" stroke-width="8" stroke-miterlimit="10"/>
<path d="M208.556 97.6384L254.326 239.655" stroke="#E4E9DE" stroke-width="8" stroke-miterlimit="10"/>
<path d="M226.119 84.634L269.391 220.775" stroke="#E4E9DE" stroke-width="8" stroke-miterlimit="10"/>
<path d="M243.987 72.8136L280.091 187.141" stroke="#E4E9DE" stroke-width="8" stroke-miterlimit="10"/>
<path d="M295.139 166.968L262.447 62.0685" stroke="#E4E9DE" stroke-width="8" stroke-miterlimit="10"/>
<path d="M311.116 148.715L310.78 147.868L310.668 147.586L281.011 52.4203" stroke="#E4E9DE" stroke-width="8" stroke-miterlimit="10"/>
<path d="M300.025 43.902L327.038 130.322" stroke="#E4E9DE" stroke-width="8" stroke-miterlimit="10"/>
<path d="M320.095 35.9574L343.24 109.71" stroke="#E4E9DE" stroke-width="8" stroke-miterlimit="10"/>
<path d="M338.361 30.1598L357.326 90.8765" stroke="#E4E9DE" stroke-width="8" stroke-miterlimit="10"/>
<path d="M356.374 27.059L370.854 73.5554" stroke="#E4E9DE" stroke-width="8" stroke-miterlimit="10"/>
<path d="M372.784 20.3409L383.523 55.7463" stroke="#E4E9DE" stroke-width="8" stroke-miterlimit="10"/>
<path d="M392.077 18.3782L398.316 41.194" stroke="#E4E9DE" stroke-width="8" stroke-miterlimit="10"/>
<path fill-rule="evenodd" clip-rule="evenodd" d="M102.337 410.445C61.8848 344.075 81.0816 226.138 146.577 158.378C238.325 169.689 313.76 233.502 345.602 313.701C289.173 391.343 197.024 429.577 102.337 410.445Z" fill="#E4E9DE"/>
<path d="M102.337 410.445C61.8848 344.075 81.0816 226.138 146.577 158.378C238.325 169.689 313.76 233.502 345.602 313.701C289.173 391.343 197.024 429.577 102.337 410.445Z" stroke="#E4E9DE" stroke-width="8" stroke-miterlimit="2.6131"/>
<path d="M315.77 344.687C318.613 341.82 346.46 311.263 346.268 310.361C325.405 252.802 234.081 163.176 147.274 157.625C145.408 157.521 120.044 195.585 117.418 199.832C76.9175 267.039 68.7007 352.048 104.372 408.047C104.372 408.047 225.664 438.201 315.77 344.687Z" stroke="#F6FBF0" stroke-width="8" stroke-miterlimit="10"/>
<path fill-rule="evenodd" clip-rule="evenodd" d="M195.406 287.209C196.416 286.826 197.417 287.258 197.809 288.247C198.201 289.235 197.761 290.215 196.752 290.598C195.743 290.981 194.742 290.548 194.349 289.56C194.013 288.713 194.541 287.537 195.406 287.209Z" fill="#231F20"/>
<path d="M315.77 344.687C318.613 341.82 346.46 311.263 346.268 310.361C325.405 252.802 234.081 163.176 147.274 157.625C145.408 157.521 120.044 195.585 117.418 199.832C76.9175 267.039 68.7007 352.048 104.372 408.047C104.372 408.047 225.664 438.201 315.77 344.687Z" fill="#F6FBF0"/>
<path d="M315.77 344.687C318.613 341.82 346.46 311.263 346.268 310.361C325.405 252.802 234.081 163.176 147.274 157.625C145.408 157.521 120.044 195.585 117.418 199.832C76.9175 267.039 68.7007 352.048 104.372 408.047C104.372 408.047 225.664 438.201 315.77 344.687Z" stroke="#E4E9DE" stroke-width="8" stroke-miterlimit="10"/>
<path d="M315.769 344.688C318.612 341.821 347.155 310.512 346.266 310.362L196.895 290.543L114.349 395.161L104.37 408.048C104.37 408.048 225.663 438.202 315.769 344.688Z" fill="#F6FBF0"/>
<path d="M315.769 344.688C318.612 341.821 347.155 310.512 346.266 310.362L196.895 290.543L114.349 395.161L104.37 408.048C104.37 408.048 225.663 438.202 315.769 344.688Z" fill="#F6FBF0" stroke="#E4E9DE" stroke-width="8" stroke-miterlimit="10" stroke-linecap="round" stroke-linejoin="round"/>
<path d="M346.034 310.612C346.179 310.557 346.123 310.416 346.123 310.416C325.26 252.857 233.936 163.231 147.129 157.68C147.129 157.68 146.785 157.648 146.841 157.79L195.991 289.099L346.034 310.612Z" fill="#F6FBF0"/>
<path d="M346.034 310.612C346.179 310.558 346.123 310.416 346.123 310.416C325.26 252.857 233.936 163.231 147.129 157.68C147.129 157.68 146.785 157.648 146.841 157.79L195.991 289.099L346.034 310.612Z" fill="white" fill-opacity="0.03" stroke="#E4E9DE" stroke-width="8" stroke-miterlimit="10"/>
</g>
</svg>
