<svg width="76" height="76" viewBox="0 0 76 76" fill="none" xmlns="http://www.w3.org/2000/svg">
<path d="M58.1174 31.2932V22.352C58.1174 11.1756 49.1763 2.23438 37.9998 2.23438C26.8233 2.23438 17.8822 11.1756 17.8822 22.352V31.2932C14.0822 31.2932 11.1763 34.1991 11.1763 37.9991V67.0579C11.1763 70.6344 14.0822 73.7638 17.8822 73.7638H58.1174C61.9174 73.7638 64.8233 70.6344 64.8233 67.0579V37.9991C64.8233 34.1991 61.9174 31.2932 58.1174 31.2932ZM22.3527 22.352C22.3527 13.6344 29.2822 6.70496 37.9998 6.70496C46.7174 6.70496 53.6469 13.6344 53.6469 22.352V31.2932H22.3527V22.352ZM40.2351 55.4344V60.352C40.2351 61.6932 39.341 62.5873 37.9998 62.5873C36.6586 62.5873 35.7645 61.6932 35.7645 60.352V55.4344C33.0822 54.5403 31.2939 52.0814 31.2939 49.1756C31.2939 45.3755 34.1998 42.4697 37.9998 42.4697C41.7998 42.4697 44.7057 45.3755 44.7057 49.1756C44.7057 52.0814 42.9174 54.5403 40.2351 55.4344Z" fill="#6DB94F"/>
</svg>
