<svg
				xmlns="http://www.w3.org/2000/svg"
				width="46"
				height="35"
				viewBox="0 0 46 35"
				fill="none"
			>
				<path
					fill-rule="evenodd"
					clip-rule="evenodd"
					d="M22.8972 7.82175L12.9712 17.5142L8.05078 12.7097L19.6024 1.31853C21.3795 -0.433493 24.2768 -0.440439 26.0629 1.30337L37.6993 12.6664L32.7788 17.4713L22.8972 7.82175ZM44.3834 19.1356L42.6791 17.4713L32.7535 27.1638L22.8844 17.4713L22.856 17.4991L22.8278 17.4713L12.9585 27.1638L3.03285 17.4713L1.33471 19.1296C-0.444904 20.8674 -0.444904 23.685 1.33471 25.4228L9.79436 33.7242C11.5251 35.4225 14.3391 35.4257 16.0738 33.7317L22.856 27.1089L29.6194 33.7131C31.3505 35.4039 34.1571 35.4045 35.8891 33.7147L44.3895 25.4228C46.1636 23.6841 46.1607 20.8712 44.3834 19.1356Z"
					fill="url(#paint0_linear_2637_8072)"
				/>
				<defs>
					<linearGradient
						id="paint0_linear_2637_8072"
						x1="45.7183"
						y1="17.5"
						x2="6.49921e-07"
						y2="17.5"
						gradientUnits="userSpaceOnUse"
					>
						<stop stop-color="#F06218" />
						<stop offset="0.476743" stop-color="#FF9428" />
						<stop offset="1" stop-color="#FFCF54" />
					</linearGradient>
				</defs>
			</svg>