<svg width="48" height="48" viewBox="0 0 48 48" fill="none" xmlns="http://www.w3.org/2000/svg">
<circle cx="24" cy="24" r="24" fill="white" fill-opacity="0.25"/>
<path d="M24.0607 13.6611C18.3817 13.6611 13.7608 18.3843 13.7608 24.1871C13.7608 29.9899 18.3817 34.7161 24.0613 34.7161C29.7409 34.7161 34.363 29.9929 34.363 24.1871C34.363 18.3813 29.7409 13.6611 24.0607 13.6611ZM24.0607 34.1136C18.7076 34.1105 14.3532 29.6587 14.3532 24.1871C14.3532 18.7155 18.7076 14.2667 24.0607 14.2667C29.4139 14.2667 33.77 18.7179 33.77 24.1901C33.77 29.6623 29.4145 34.1105 24.0607 34.1105V34.1136Z" fill="white"/>
<path d="M24.0613 17.1779C24.1399 17.1779 24.2152 17.146 24.2708 17.0893C24.3263 17.0325 24.3575 16.9555 24.3575 16.8752V15.9717C24.3575 15.8914 24.3263 15.8144 24.2708 15.7576C24.2152 15.7008 24.1399 15.6689 24.0613 15.6689C23.9828 15.6689 23.9074 15.7008 23.8519 15.7576C23.7963 15.8144 23.7651 15.8914 23.7651 15.9717V16.8752C23.7651 16.9555 23.7963 17.0325 23.8519 17.0893C23.9074 17.146 23.9828 17.1779 24.0613 17.1779Z" fill="white"/>
<path d="M16.9089 23.8838H16.0245C15.9459 23.8838 15.8706 23.9157 15.815 23.9725C15.7594 24.0292 15.7282 24.1063 15.7282 24.1866C15.7282 24.2669 15.7594 24.3439 15.815 24.4006C15.8706 24.4574 15.9459 24.4893 16.0245 24.4893H16.9089C16.9875 24.4893 17.0629 24.4574 17.1184 24.4006C17.174 24.3439 17.2052 24.2669 17.2052 24.1866C17.2052 24.1063 17.174 24.0292 17.1184 23.9725C17.0629 23.9157 16.9875 23.8838 16.9089 23.8838V23.8838Z" fill="white"/>
<path d="M24.0613 31.1953C23.9828 31.1953 23.9074 31.2272 23.8519 31.284C23.7963 31.3408 23.7651 31.4178 23.7651 31.4981V32.4015C23.7651 32.4818 23.7963 32.5588 23.8519 32.6156C23.9074 32.6724 23.9828 32.7043 24.0613 32.7043C24.1399 32.7043 24.2152 32.6724 24.2708 32.6156C24.3263 32.5588 24.3575 32.4818 24.3575 32.4015V31.4981C24.3575 31.4178 24.3263 31.3408 24.2708 31.284C24.2152 31.2272 24.1399 31.1953 24.0613 31.1953Z" fill="white"/>
<path d="M32.0976 23.8838H31.2137C31.1351 23.8838 31.0598 23.9157 31.0042 23.9725C30.9487 24.0292 30.9175 24.1063 30.9175 24.1866C30.9175 24.2669 30.9487 24.3439 31.0042 24.4006C31.0598 24.4574 31.1351 24.4893 31.2137 24.4893H32.0976C32.1762 24.4893 32.2515 24.4574 32.307 24.4006C32.3626 24.3439 32.3938 24.2669 32.3938 24.1866C32.3938 24.1063 32.3626 24.0292 32.307 23.9725C32.2515 23.9157 32.1762 23.8838 32.0976 23.8838V23.8838Z" fill="white"/>
<path d="M35.7991 33.341C35.8776 33.341 35.953 33.3091 36.0085 33.2523C36.0641 33.1955 36.0953 33.1185 36.0953 33.0382V32.251C36.0953 32.1707 36.0641 32.0937 36.0085 32.0369C35.953 31.9801 35.8776 31.9482 35.7991 31.9482H33.1041C33.0256 31.9482 32.9502 31.9801 32.8947 32.0369C32.8391 32.0937 32.8079 32.1707 32.8079 32.251V34.2184C32.8079 34.2987 32.8391 34.3757 32.8947 34.4325C32.9502 34.4892 33.0256 34.5211 33.1041 34.5211H35.5029V35.8818H33.4003V35.2006C33.4003 35.1203 33.3691 35.0432 33.3136 34.9865C33.258 34.9297 33.1827 34.8978 33.1041 34.8978C33.0256 34.8978 32.9502 34.9297 32.8947 34.9865C32.8391 35.0432 32.8079 35.1203 32.8079 35.2006V36.1833C32.8079 36.2636 32.8391 36.3406 32.8947 36.3974C32.9502 36.4542 33.0256 36.4861 33.1041 36.4861H35.7991C35.8776 36.4861 35.953 36.4542 36.0085 36.3974C36.0641 36.3406 36.0953 36.2636 36.0953 36.1833V34.2172C36.0953 34.1369 36.0641 34.0599 36.0085 34.0031C35.953 33.9463 35.8776 33.9144 35.7991 33.9144H33.4003V32.5538H35.5029V33.0382C35.5029 33.1185 35.5341 33.1955 35.5896 33.2523C35.6452 33.3091 35.7205 33.341 35.7991 33.341V33.341Z" fill="white"/>
<path d="M15.1406 16.7995C15.1688 16.7997 15.197 16.7956 15.2241 16.7874C15.2855 16.7689 15.3394 16.7307 15.3778 16.6783C15.4161 16.6259 15.4368 16.5622 15.4368 16.4967V11.8166C15.4368 11.7363 15.4056 11.6593 15.35 11.6025C15.2945 11.5457 15.2191 11.5138 15.1406 11.5138C15.062 11.5138 14.9867 11.5457 14.9311 11.6025C14.8756 11.6593 14.8443 11.7363 14.8443 11.8166V15.4643L12.4515 11.6531C12.417 11.598 12.3659 11.5558 12.3059 11.5329C12.2459 11.5099 12.1803 11.5075 12.1188 11.5259C12.0573 11.5443 12.0034 11.5826 11.965 11.635C11.9266 11.6874 11.9059 11.7511 11.9059 11.8166V16.4967C11.9059 16.577 11.9371 16.6541 11.9927 16.7108C12.0482 16.7676 12.1236 16.7995 12.2021 16.7995C12.2807 16.7995 12.356 16.7676 12.4116 16.7108C12.4671 16.6541 12.4983 16.577 12.4983 16.4967V12.849L14.8917 16.6639C14.9189 16.7058 14.9559 16.7402 14.9993 16.7639C15.0428 16.7876 15.0913 16.7998 15.1406 16.7995V16.7995Z" fill="white"/>
<path d="M26.6093 26.6374C26.8531 26.0753 27.0161 25.4802 27.0934 24.8705C27.2711 23.3699 26.8131 22.1032 25.7622 21.2064C23.3273 19.1294 19.4789 19.3686 19.316 19.3801C19.2442 19.3851 19.1767 19.4166 19.126 19.4688C19.0753 19.5209 19.0449 19.5901 19.0405 19.6635C19.0304 19.8294 18.8154 23.7647 20.8598 26.2426C21.6128 27.1551 22.6265 27.6268 23.819 27.6268C24.0304 27.6266 24.2415 27.6124 24.4511 27.5845C25.0545 27.5018 25.6427 27.3292 26.197 27.0722L27.7231 28.6241C27.7505 28.653 27.7833 28.6759 27.8194 28.6917C27.8556 28.7074 27.8945 28.7157 27.9338 28.7159C27.9732 28.7161 28.0121 28.7084 28.0485 28.693C28.0849 28.6777 28.1179 28.6551 28.1456 28.6266C28.1733 28.5981 28.1952 28.5643 28.21 28.527C28.2248 28.4898 28.2322 28.4499 28.2317 28.4097C28.2313 28.3695 28.223 28.3298 28.2074 28.2929C28.1918 28.256 28.1691 28.2227 28.1408 28.1948L26.6093 26.6374ZM24.3581 26.9862C23.0903 27.1466 22.0654 26.7658 21.3124 25.8526C19.7176 23.9192 19.6157 20.8951 19.624 19.9753C20.5245 19.9608 23.4801 20.0486 25.3824 21.6708C26.2794 22.4362 26.6579 23.482 26.508 24.7784C26.4487 25.2573 26.3304 25.7267 26.1561 26.1754L25.4748 25.482L25.5234 23.0284C25.5242 22.9887 25.5173 22.9491 25.5032 22.9121C25.489 22.875 25.4678 22.8412 25.4409 22.8125C25.4139 22.7839 25.3817 22.7609 25.3461 22.7449C25.3104 22.729 25.272 22.7204 25.2331 22.7196H25.2272C25.1497 22.7196 25.0752 22.7506 25.0198 22.8061C24.9644 22.8616 24.9325 22.9371 24.931 23.0163L24.8937 24.8935L24.0311 24.0154L23.864 22.1686C23.8605 22.1288 23.8493 22.0902 23.8311 22.0548C23.8129 22.0195 23.788 21.9882 23.758 21.9626C23.728 21.9371 23.6933 21.9179 23.656 21.906C23.6187 21.8942 23.5795 21.89 23.5406 21.8937C23.5017 21.8973 23.4639 21.9088 23.4293 21.9274C23.3947 21.946 23.3641 21.9713 23.3391 22.002C23.3141 22.0327 23.2953 22.0682 23.2837 22.1063C23.2721 22.1444 23.268 22.1845 23.2716 22.2243L23.3759 23.3494L22.1288 22.0777C22.1014 22.0489 22.0687 22.0259 22.0325 22.0102C21.9963 21.9944 21.9574 21.9862 21.9181 21.986C21.8788 21.9857 21.8398 21.9935 21.8034 22.0088C21.7671 22.0242 21.7341 22.0468 21.7063 22.0753C21.6786 22.1038 21.6567 22.1376 21.6419 22.1749C21.6271 22.2121 21.6197 22.252 21.6202 22.2922C21.6206 22.3324 21.6289 22.3721 21.6445 22.409C21.6601 22.4459 21.6828 22.4792 21.7112 22.5071L22.9582 23.7756L21.8569 23.6776C21.7783 23.6706 21.7003 23.6958 21.6399 23.7476C21.5795 23.7994 21.5417 23.8737 21.5349 23.954C21.5281 24.0343 21.5527 24.1141 21.6034 24.1758C21.6542 24.2375 21.7268 24.2761 21.8053 24.2831L23.6134 24.4448L24.4754 25.321L22.6389 25.3688C22.5603 25.3698 22.4854 25.4026 22.4305 25.4601C22.3756 25.5175 22.3453 25.5949 22.3462 25.6752C22.3472 25.7555 22.3793 25.8321 22.4355 25.8882C22.4917 25.9443 22.5674 25.9753 22.646 25.9743H22.6537L25.0536 25.9138L25.7414 26.6132C25.2979 26.7971 24.8333 26.9224 24.3587 26.9862H24.3581Z" fill="white"/>
</svg>
