<svg width="49" height="48" viewBox="0 0 49 48" fill="none" xmlns="http://www.w3.org/2000/svg">
<circle cx="24.5" cy="24" r="24" fill="white" fill-opacity="0.25"/>
<path d="M24.0003 13.0029C18.6092 13.0029 14.2206 17.3852 14.2206 22.7728C14.2196 24.5886 14.7251 26.3687 15.6804 27.9135C16.6357 29.4583 18.0031 30.7065 19.6291 31.5181V33.2357H18.1529C18.0678 33.2357 17.9862 33.2695 17.926 33.3296C17.8658 33.3898 17.832 33.4713 17.832 33.5563C17.832 33.6413 17.8658 33.7229 17.926 33.783C17.9862 33.8431 18.0678 33.8769 18.1529 33.8769H19.6291V35.4804H18.1529C18.0678 35.4804 17.9862 35.5142 17.926 35.5743C17.8658 35.6344 17.832 35.716 17.832 35.801C17.832 35.886 17.8658 35.9675 17.926 36.0277C17.9862 36.0878 18.0678 36.1216 18.1529 36.1216H19.6291V38.0489C19.6291 38.1339 19.6629 38.2154 19.723 38.2755C19.7832 38.3357 19.8648 38.3694 19.9499 38.3694H28.05C28.1352 38.3694 28.2168 38.3357 28.277 38.2755C28.3371 38.2154 28.3709 38.1339 28.3709 38.0489V36.1216H29.8509C29.936 36.1216 30.0177 36.0878 30.0778 36.0277C30.138 35.9675 30.1718 35.886 30.1718 35.801C30.1718 35.716 30.138 35.6344 30.0778 35.5743C30.0177 35.5142 29.936 35.4804 29.8509 35.4804H28.3709V33.8737H29.8509C29.936 33.8737 30.0177 33.8399 30.0778 33.7798C30.138 33.7197 30.1718 33.6381 30.1718 33.5531C30.1718 33.4681 30.138 33.3865 30.0778 33.3264C30.0177 33.2663 29.936 33.2325 29.8509 33.2325H28.3709V31.5181C29.9967 30.7062 31.3638 29.4579 32.3191 27.9132C33.2744 26.3685 33.78 24.5885 33.7794 22.7728C33.7794 17.3852 29.3927 13.0029 24.0003 13.0029ZM27.7291 37.7283H20.2708V36.1216H27.7291V37.7283ZM20.2708 35.4804V33.8737H27.7291V35.4804H20.2708ZM31.6839 27.7154C30.7597 29.1479 29.4536 30.2944 27.9127 31.0257C27.8579 31.0516 27.8115 31.0926 27.779 31.1437C27.7466 31.1949 27.7293 31.2542 27.7291 31.3148V33.2325H20.2708V31.3399C20.2754 31.2803 20.2632 31.2206 20.2357 31.1676C20.2081 31.1146 20.1663 31.0703 20.1149 31.0398C20.1025 31.0323 20.0897 31.0256 20.0764 31.0199C18.5156 30.2785 17.1972 29.1101 16.2743 27.6504C15.3515 26.1906 14.8619 24.4993 14.8624 22.7728C14.8624 17.7391 18.9616 13.6441 24.0003 13.6441C29.0391 13.6441 33.1376 17.7391 33.1376 22.7728C33.1399 24.5258 32.6351 26.2422 31.6839 27.7154Z" fill="white"/>
<path d="M24.0003 11.6214C24.0854 11.6214 24.167 11.5876 24.2272 11.5275C24.2874 11.4673 24.3212 11.3858 24.3212 11.3008V9.95436C24.3212 9.86934 24.2874 9.7878 24.2272 9.72768C24.167 9.66756 24.0854 9.63379 24.0003 9.63379C23.9152 9.63379 23.8336 9.66756 23.7734 9.72768C23.7132 9.7878 23.6794 9.86934 23.6794 9.95436V11.3008C23.6794 11.3858 23.7132 11.4673 23.7734 11.5275C23.8336 11.5876 23.9152 11.6214 24.0003 11.6214Z" fill="white"/>
<path d="M32.1203 14.9806C32.1625 14.9807 32.2043 14.9725 32.2433 14.9564C32.2822 14.9404 32.3177 14.9168 32.3475 14.887L33.3019 13.933C33.3325 13.9034 33.357 13.8681 33.3738 13.8289C33.3906 13.7898 33.3995 13.7478 33.3998 13.7052C33.4002 13.6626 33.3921 13.6204 33.3759 13.581C33.3598 13.5416 33.336 13.5058 33.3058 13.4757C33.2757 13.4456 33.2399 13.4218 33.2005 13.4057C33.161 13.3896 33.1188 13.3815 33.0762 13.3818C33.0335 13.3822 32.9914 13.3911 32.9523 13.4079C32.9131 13.4247 32.8777 13.4491 32.8481 13.4797L31.8931 14.4337C31.8484 14.4786 31.8179 14.5357 31.8056 14.5979C31.7933 14.66 31.7997 14.7244 31.824 14.7829C31.8483 14.8415 31.8894 14.8915 31.9422 14.9267C31.9949 14.9618 32.0569 14.9806 32.1203 14.9806Z" fill="white"/>
<path d="M36.8337 22.4521H35.4859C35.4008 22.4521 35.3192 22.4859 35.259 22.546C35.1988 22.6062 35.165 22.6877 35.165 22.7727C35.165 22.8577 35.1988 22.9393 35.259 22.9994C35.3192 23.0595 35.4008 23.0933 35.4859 23.0933H36.8337C36.9188 23.0933 37.0004 23.0595 37.0606 22.9994C37.1208 22.9393 37.1546 22.8577 37.1546 22.7727C37.1546 22.6877 37.1208 22.6062 37.0606 22.546C37.0004 22.4859 36.9188 22.4521 36.8337 22.4521Z" fill="white"/>
<path d="M32.3468 30.658C32.3175 30.6262 32.2821 30.6007 32.2426 30.583C32.2032 30.5652 32.1606 30.5556 32.1173 30.5548C32.0741 30.5539 32.0311 30.5618 31.9909 30.5779C31.9508 30.5941 31.9144 30.6182 31.8838 30.6487C31.8532 30.6793 31.8292 30.7158 31.8131 30.7559C31.797 30.796 31.7891 30.8389 31.7901 30.8821C31.791 30.9253 31.8006 30.9679 31.8185 31.0073C31.8363 31.0467 31.8619 31.0821 31.8937 31.1113L32.8487 32.0647C32.8781 32.0965 32.9135 32.122 32.953 32.1397C32.9924 32.1575 33.035 32.1671 33.0783 32.1679C33.1215 32.1688 33.1645 32.1609 33.2046 32.1448C33.2448 32.1286 33.2812 32.1045 33.3118 32.074C33.3423 32.0434 33.3664 32.0069 33.3825 31.9668C33.3986 31.9267 33.4065 31.8838 33.4055 31.8406C33.4046 31.7974 33.3949 31.7548 33.3771 31.7154C33.3593 31.676 33.3337 31.6406 33.3019 31.6114L32.3468 30.658Z" fill="white"/>
<path d="M15.6525 14.887C15.7126 14.9472 15.7943 14.9811 15.8794 14.9811C15.9646 14.9812 16.0463 14.9475 16.1065 14.8874C16.1668 14.8272 16.2007 14.7457 16.2008 14.6606C16.2008 14.5755 16.167 14.4939 16.1069 14.4337L15.1538 13.4797C15.1242 13.4491 15.0888 13.4247 15.0496 13.4079C15.0105 13.3911 14.9684 13.3822 14.9258 13.3818C14.8832 13.3815 14.8409 13.3896 14.8015 13.4057C14.762 13.4218 14.7262 13.4456 14.6961 13.4757C14.6659 13.5058 14.6421 13.5416 14.626 13.581C14.6098 13.6204 14.6017 13.6626 14.6021 13.7052C14.6025 13.7478 14.6113 13.7898 14.6281 13.8289C14.645 13.8681 14.6694 13.9034 14.7 13.933L15.6525 14.887Z" fill="white"/>
<path d="M12.516 22.4521H11.1682C11.0831 22.4521 11.0015 22.4859 10.9413 22.546C10.8812 22.6062 10.8474 22.6877 10.8474 22.7727C10.8474 22.8577 10.8812 22.9393 10.9413 22.9994C11.0015 23.0595 11.0831 23.0933 11.1682 23.0933H12.516C12.6011 23.0933 12.6827 23.0595 12.7429 22.9994C12.8031 22.9393 12.8369 22.8577 12.8369 22.7727C12.8369 22.6877 12.8031 22.6062 12.7429 22.546C12.6827 22.4859 12.6011 22.4521 12.516 22.4521Z" fill="white"/>
<path d="M15.6531 30.658L14.6981 31.6114C14.6663 31.6406 14.6407 31.676 14.6229 31.7154C14.6051 31.7548 14.5954 31.7974 14.5945 31.8406C14.5935 31.8838 14.6014 31.9267 14.6175 31.9668C14.6336 32.0069 14.6577 32.0434 14.6882 32.074C14.7188 32.1045 14.7552 32.1286 14.7954 32.1448C14.8355 32.1609 14.8785 32.1688 14.9217 32.1679C14.965 32.1671 15.0076 32.1575 15.047 32.1397C15.0865 32.122 15.1219 32.0965 15.1512 32.0647L16.1062 31.1113C16.1381 31.0821 16.1637 31.0467 16.1815 31.0073C16.1993 30.9679 16.209 30.9253 16.2099 30.8821C16.2108 30.8389 16.203 30.796 16.1869 30.7559C16.1708 30.7158 16.1467 30.6793 16.1162 30.6487C16.0856 30.6182 16.0492 30.5941 16.009 30.5779C15.9689 30.5618 15.9259 30.5539 15.8827 30.5548C15.8394 30.5556 15.7968 30.5652 15.7573 30.583C15.7179 30.6007 15.6825 30.6262 15.6531 30.658Z" fill="white"/>
<path d="M27.7638 23.5034C27.4558 20.0848 24.3276 17.3188 24.1948 17.2028C24.1362 17.1514 24.0609 17.123 23.983 17.123C23.905 17.123 23.8298 17.1514 23.7712 17.2028C23.639 17.3195 20.525 20.1014 20.2343 23.5213C20.1059 24.996 20.7118 26.2949 21.9793 27.274C22.5036 27.6738 23.0837 27.9946 23.7012 28.2261L23.707 30.556C23.707 30.641 23.7408 30.7226 23.801 30.7827C23.8612 30.8428 23.9428 30.8766 24.0279 30.8766C24.113 30.8766 24.1947 30.8428 24.2548 30.7827C24.315 30.7226 24.3488 30.641 24.3488 30.556L24.343 28.2177C24.9509 27.9834 25.5215 27.6625 26.0374 27.265C27.2998 26.2795 27.8986 24.9793 27.7638 23.504V23.5034ZM25.6568 26.7476C25.2528 27.0608 24.8107 27.3217 24.3411 27.524V26.4834L26.2171 24.6844C26.2785 24.6254 26.3139 24.5446 26.3156 24.4596C26.3172 24.3746 26.2851 24.2924 26.2261 24.2311C26.1671 24.1698 26.0862 24.1344 26.0011 24.1327C25.916 24.131 25.8337 24.1632 25.7723 24.2221L24.3386 25.5967L24.3315 24.2811L25.5881 22.7705C25.6425 22.7051 25.6686 22.6207 25.6608 22.536C25.6529 22.4513 25.6116 22.3732 25.5461 22.3188C25.4806 22.2645 25.3961 22.2384 25.3113 22.2463C25.2265 22.2542 25.1483 22.2954 25.0939 22.3608L24.3315 23.2809L24.327 21.3767C24.327 21.2916 24.2932 21.2101 24.233 21.15C24.1728 21.0899 24.0912 21.0561 24.0061 21.0561C23.921 21.0561 23.8394 21.0899 23.7792 21.15C23.719 21.2101 23.6852 21.2916 23.6852 21.3767L23.6897 23.2809L22.9195 22.3647C22.8924 22.3324 22.8593 22.3058 22.8219 22.2864C22.7845 22.267 22.7436 22.2551 22.7016 22.2514C22.6597 22.2478 22.6174 22.2524 22.5772 22.2651C22.537 22.2777 22.4997 22.2982 22.4674 22.3253C22.4351 22.3523 22.4085 22.3855 22.389 22.4228C22.3696 22.4602 22.3577 22.501 22.354 22.5429C22.3503 22.5849 22.355 22.6271 22.3677 22.6673C22.3804 22.7074 22.4008 22.7447 22.4279 22.7769L23.6897 24.283L23.6929 25.5986L22.2527 24.2304C22.191 24.1718 22.1085 24.1402 22.0234 24.1423C21.9383 24.1445 21.8576 24.1803 21.799 24.242C21.7403 24.3036 21.7086 24.386 21.7108 24.471C21.7129 24.556 21.7488 24.6367 21.8105 24.6953L23.6955 26.4854V27.5356C23.2166 27.3341 22.7656 27.072 22.3535 26.7559C21.2624 25.9064 20.7625 24.8363 20.8696 23.5765C21.0968 20.9093 23.2847 18.5665 23.9811 17.8843C24.6806 18.5633 26.8801 20.8945 27.1207 23.5604C27.2382 24.8203 26.7447 25.8923 25.6568 26.7476Z" fill="white"/>
</svg>
