<svg width="49" height="48" viewBox="0 0 49 48" fill="none" xmlns="http://www.w3.org/2000/svg">
<circle cx="24" cy="24" r="24" fill="white" fill-opacity="0.25"/>
<path d="M35.0534 11.0723H13.9466C13.4782 11.0716 13.0286 11.2566 12.6965 11.5866C12.3644 11.9167 12.177 12.3649 12.1753 12.8329V33.7902C12.1759 34.1762 12.3034 34.5513 12.5382 34.8578C12.773 35.1643 13.1021 35.3852 13.4749 35.4867C13.3632 35.9919 13.3241 36.4228 13.5391 36.6978C13.5984 36.7731 13.6748 36.8333 13.7619 36.8733C13.8491 36.9133 13.9445 36.9321 14.0403 36.928H20.0225C20.8113 36.928 21.5885 36.2157 22.0602 35.5502H26.9379C27.4109 36.2157 28.1894 36.928 28.9768 36.928H34.959C35.0548 36.9321 35.1503 36.9133 35.2374 36.8733C35.3246 36.8333 35.4009 36.7731 35.4603 36.6978C35.6753 36.4228 35.6361 35.9926 35.5244 35.4867C35.8972 35.3852 36.2263 35.1643 36.4611 34.8578C36.6959 34.5513 36.8234 34.1762 36.8241 33.7902V12.8329C36.8224 12.365 36.635 11.9169 36.3031 11.5869C35.9711 11.2568 35.5217 11.0718 35.0534 11.0723ZM20.0225 36.2868H14.0378C14.0025 36.1907 14.0301 35.9438 14.1193 35.5502H21.2374C20.8716 35.9567 20.4172 36.2868 20.0225 36.2868ZM34.9622 36.2868H28.9775C28.5834 36.2868 28.1284 35.9567 27.7581 35.5502H34.8807C34.9718 35.9419 34.9975 36.1907 34.9622 36.2868ZM36.1816 33.7902C36.1809 34.077 36.0701 34.3526 35.8722 34.5603C35.6743 34.7681 35.4042 34.8922 35.1175 34.9071H35.0534H13.9466H13.8825C13.5955 34.8925 13.325 34.7686 13.1267 34.5608C12.9284 34.353 12.8174 34.0773 12.8164 33.7902V12.8329C12.818 12.5349 12.9377 12.2497 13.1495 12.0398C13.3613 11.8299 13.6477 11.7126 13.946 11.7134H35.0534C35.3516 11.7126 35.6381 11.8299 35.8498 12.0398C36.0616 12.2497 36.1814 12.5349 36.1829 12.8329L36.1816 33.7902Z" fill="white"/>
<path d="M32.7384 13.6865H16.2616C15.8773 13.6862 15.5086 13.838 15.2363 14.1088C14.9639 14.3796 14.8101 14.7472 14.8086 15.131V17.0276C14.7996 17.0314 14.7919 17.0365 14.7829 17.041C14.7739 17.0455 14.7508 17.0577 14.7354 17.0667C14.72 17.0757 14.6918 17.091 14.6712 17.1039C14.6507 17.1167 14.6411 17.1225 14.6263 17.1321C14.6115 17.1417 14.5852 17.159 14.5653 17.1725L14.5236 17.2026C14.5037 17.2173 14.4845 17.2327 14.4658 17.2481C14.4472 17.2635 14.4408 17.268 14.4293 17.2783C14.4177 17.2885 14.3895 17.3142 14.3709 17.3321C14.3522 17.3501 14.351 17.3501 14.342 17.3597C14.3157 17.386 14.2913 17.4123 14.2675 17.4398C14.2655 17.4417 14.2637 17.4438 14.2624 17.4462C14.2367 17.4757 14.213 17.5065 14.1905 17.5379C14.1828 17.5475 14.1764 17.5584 14.1693 17.5687C14.1546 17.5905 14.1398 17.6123 14.1263 17.6328L14.1039 17.6719C14.0923 17.6924 14.0808 17.713 14.0699 17.736C14.0589 17.7591 14.0557 17.7649 14.0493 17.7796C14.0429 17.7944 14.0301 17.8213 14.0211 17.8437C14.0121 17.8662 14.0089 17.8745 14.0031 17.8906C13.9973 17.9066 13.9877 17.9335 13.9806 17.9547L13.9652 18.0034C13.9588 18.0258 13.9531 18.0483 13.9479 18.0714C13.9428 18.0944 13.9396 18.1041 13.9364 18.1207C13.9332 18.1374 13.9267 18.1695 13.9229 18.1945C13.919 18.2195 13.9171 18.2259 13.9152 18.2419C13.9113 18.2695 13.9088 18.2977 13.9062 18.3259C13.9062 18.34 13.9062 18.3535 13.9024 18.3676C13.9024 18.4099 13.8979 18.4528 13.8979 18.4958C13.8979 18.5388 13.8979 18.5824 13.9024 18.624C13.9024 18.6381 13.9024 18.6516 13.9062 18.6657C13.9062 18.6939 13.9113 18.7221 13.9152 18.7497C13.9152 18.7657 13.9203 18.7818 13.9229 18.7978C13.9255 18.8138 13.9312 18.8472 13.9364 18.8709C13.9415 18.8946 13.9434 18.9042 13.9479 18.9202C13.9524 18.9363 13.9588 18.9658 13.9652 18.9882L13.9806 19.0369C13.9877 19.0587 13.9948 19.0799 14.0031 19.101C14.0115 19.1222 14.0147 19.1331 14.0211 19.1491C14.0275 19.1652 14.0391 19.1895 14.0487 19.21L14.0699 19.2556C14.0801 19.2754 14.091 19.2953 14.1019 19.3146C14.1129 19.3338 14.118 19.3434 14.127 19.3575C14.136 19.3716 14.152 19.3966 14.1655 19.4165C14.179 19.4364 14.1822 19.4421 14.1912 19.4543C14.2091 19.4793 14.2284 19.503 14.2476 19.5268L14.2849 19.5704C14.3028 19.5902 14.3208 19.6108 14.3401 19.63L14.3792 19.6672L14.4267 19.7108C14.4415 19.7236 14.4569 19.7358 14.4723 19.748L14.5204 19.7864L14.5705 19.8217C14.5871 19.8339 14.6045 19.8454 14.6218 19.857L14.6751 19.8897C14.6937 19.9006 14.7123 19.9115 14.7316 19.9217C14.7508 19.932 14.7675 19.9416 14.7867 19.9512L14.8092 19.9634V26.6564L14.7842 26.6698C14.7675 26.6782 14.7514 26.6872 14.736 26.6961C14.7206 26.7051 14.6924 26.7205 14.6719 26.7327L14.6263 26.7609L14.566 26.8019L14.5243 26.8314C14.5044 26.8462 14.4857 26.8615 14.4665 26.8769L14.4293 26.9077C14.4094 26.925 14.3908 26.943 14.3721 26.9609C14.3535 26.9789 14.3516 26.9795 14.3426 26.9891C14.317 27.0141 14.2932 27.0404 14.2701 27.0674L14.2624 27.075C14.2374 27.1052 14.2136 27.1353 14.1912 27.1667C14.1835 27.177 14.177 27.1879 14.17 27.1982C14.1552 27.2199 14.1405 27.2411 14.127 27.2623C14.1135 27.2834 14.1116 27.2886 14.1045 27.302C14.0975 27.3155 14.0814 27.3431 14.0705 27.3661L14.0493 27.4097C14.0397 27.4302 14.0307 27.4514 14.0217 27.4738C14.0127 27.4963 14.0095 27.5046 14.0038 27.52C13.998 27.5354 13.9884 27.5636 13.9813 27.5841L13.9659 27.6322C13.9595 27.6546 13.9537 27.6777 13.9486 27.7008C13.9434 27.7239 13.9402 27.7335 13.937 27.7495C13.9338 27.7656 13.9274 27.7989 13.9235 27.8233C13.9197 27.8476 13.9178 27.8553 13.9158 27.8714C13.912 27.8989 13.9094 27.9271 13.9068 27.9553C13.9068 27.9688 13.9068 27.9829 13.903 27.9964C13.903 28.0393 13.8985 28.0823 13.8985 28.1246C13.8985 28.1669 13.8985 28.2118 13.903 28.2528C13.903 28.2669 13.903 28.2804 13.9068 28.2945C13.9068 28.3227 13.912 28.3509 13.9158 28.3785C13.9158 28.3945 13.921 28.4106 13.9235 28.426C13.9261 28.4413 13.9319 28.4753 13.937 28.4997C13.9421 28.5241 13.9441 28.5324 13.9486 28.5491C13.9531 28.5657 13.9595 28.5946 13.9659 28.617L13.9813 28.6657C13.9884 28.6875 13.9954 28.7087 14.0038 28.7299C14.0121 28.751 14.0153 28.7619 14.0217 28.7773C14.0281 28.7927 14.0397 28.8183 14.0493 28.8414L14.0705 28.8869C14.0808 28.9068 14.0917 28.9261 14.1026 28.9459C14.1135 28.9658 14.1186 28.9748 14.1276 28.9889C14.1366 29.003 14.1527 29.028 14.1661 29.0472L14.1918 29.0857C14.2098 29.1101 14.229 29.1344 14.2483 29.1582C14.2675 29.1819 14.2733 29.187 14.2855 29.2011C14.2977 29.2152 14.3214 29.2415 14.3407 29.2607L14.3798 29.2979L14.4273 29.3415L14.4729 29.3793L14.521 29.4178L14.5711 29.4531C14.5878 29.4646 14.6051 29.4768 14.6224 29.4877C14.6398 29.4986 14.6577 29.5101 14.6757 29.5204C14.6937 29.5307 14.7129 29.5422 14.7322 29.5531C14.7514 29.564 14.7681 29.573 14.7874 29.5826L14.8099 29.5948V31.4913C14.8112 31.8753 14.9649 32.243 15.2373 32.5139C15.5097 32.7849 15.8785 32.9368 16.2629 32.9365H32.7384C33.1228 32.9368 33.4916 32.7849 33.764 32.5139C34.0364 32.243 34.1901 31.8753 34.1915 31.4913V15.131C34.1899 14.7472 34.0361 14.3796 33.7638 14.1088C33.4914 13.838 33.1227 13.6862 32.7384 13.6865ZM15.2418 19.4569C14.7688 19.2806 14.5358 18.967 14.5358 18.499C14.5358 18.4426 14.5394 18.3863 14.5467 18.3304C14.5974 17.954 14.8253 17.695 15.2399 17.5398C15.3522 17.4982 15.4679 17.4664 15.5858 17.445V19.5524C15.4685 19.5302 15.3533 19.4975 15.2418 19.455V19.4569ZM15.2418 29.0857C14.7688 28.9094 14.5358 28.5959 14.5358 28.124C14.5358 28.0951 14.5358 28.0663 14.5358 28.0381C14.5628 27.6168 14.7925 27.3328 15.2373 27.1655C15.3495 27.1235 15.4653 27.0917 15.5832 27.0706V29.178C15.4668 29.1555 15.3526 29.1231 15.2418 29.0812V29.0857ZM33.5497 31.4926C33.5486 31.7066 33.4626 31.9115 33.3105 32.0622C33.1584 32.213 32.9527 32.2973 32.7384 32.2966H16.2616C16.0473 32.2973 15.8416 32.213 15.6895 32.0622C15.5374 31.9115 15.4514 31.7066 15.4504 31.4926V29.8051C15.6018 29.8351 15.7555 29.852 15.9099 29.8557C15.995 29.8557 16.0766 29.8219 16.1368 29.7618C16.197 29.7017 16.2308 29.6202 16.2308 29.5351V26.7141C16.2308 26.6291 16.197 26.5475 16.1368 26.4874C16.0766 26.4273 15.995 26.3935 15.9099 26.3935C15.7555 26.3972 15.6018 26.4142 15.4504 26.4442V20.1763C15.6017 20.2067 15.7555 20.2236 15.9099 20.2269C15.995 20.2269 16.0766 20.1931 16.1368 20.133C16.197 20.0729 16.2308 19.9914 16.2308 19.9063V17.0853C16.2308 17.0002 16.197 16.9187 16.1368 16.8586C16.0766 16.7985 15.995 16.7647 15.9099 16.7647C15.7555 16.7684 15.6018 16.7853 15.4504 16.8153V15.1291C15.4516 14.9152 15.5376 14.7105 15.6897 14.5599C15.8418 14.4093 16.0475 14.3251 16.2616 14.3258H32.7384C32.9526 14.3251 33.1582 14.4093 33.3103 14.5599C33.4624 14.7105 33.5485 14.9152 33.5497 15.1291V31.4926Z" fill="white"/>
<path d="M31.8912 17.7246C31.8061 17.7246 31.7245 17.7584 31.6643 17.8185C31.6042 17.8786 31.5703 17.9602 31.5703 18.0452V28.5787C31.5703 28.6637 31.6042 28.7452 31.6643 28.8053C31.7245 28.8655 31.8061 28.8992 31.8912 28.8992C31.9763 28.8992 32.058 28.8655 32.1181 28.8053C32.1783 28.7452 32.2121 28.6637 32.2121 28.5787V18.0452C32.2121 17.9602 32.1783 17.8786 32.1181 17.8185C32.058 17.7584 31.9763 17.7246 31.8912 17.7246Z" fill="white"/>
<path d="M24.6948 16.5153C24.6362 16.4639 24.5609 16.4355 24.483 16.4355C24.405 16.4355 24.3298 16.4639 24.2712 16.5153C24.139 16.632 21.025 19.4139 20.7343 22.8338C20.6059 24.3085 21.2118 25.6075 22.4793 26.5865C23.0036 26.9863 23.5837 27.3071 24.2012 27.5386L24.207 29.8685C24.207 29.9536 24.2408 30.0351 24.301 30.0952C24.3612 30.1553 24.4428 30.1891 24.5279 30.1891C24.613 30.1891 24.6947 30.1553 24.7548 30.0952C24.815 30.0351 24.8488 29.9536 24.8488 29.8685L24.843 27.5309C25.4507 27.2963 26.0214 26.9754 26.5374 26.5782C27.7998 25.5927 28.3986 24.2918 28.2638 22.8165C27.9558 19.396 24.8276 16.6301 24.6948 16.5153ZM26.1574 26.0607C25.753 26.3739 25.3108 26.6349 24.8411 26.8378V25.7972L26.7171 23.9982C26.7785 23.9392 26.814 23.8583 26.8158 23.7733C26.8175 23.6882 26.7854 23.6059 26.7264 23.5445C26.6674 23.4832 26.5864 23.4477 26.5013 23.446C26.4161 23.4442 26.3338 23.4763 26.2723 23.5352L24.8386 24.9105L24.8315 23.593L26.0881 22.0824C26.1425 22.0169 26.1686 21.9326 26.1608 21.8479C26.1529 21.7631 26.1116 21.685 26.0461 21.6307C25.9806 21.5764 25.8961 21.5503 25.8113 21.5582C25.7265 21.566 25.6483 21.6072 25.5939 21.6727L24.8315 22.5928L24.827 20.6885C24.827 20.6035 24.7932 20.522 24.733 20.4619C24.6728 20.4017 24.5912 20.368 24.5061 20.368C24.421 20.368 24.3394 20.4017 24.2792 20.4619C24.219 20.522 24.1852 20.6035 24.1852 20.6885L24.1897 22.5928L23.4195 21.6766C23.3648 21.6114 23.2864 21.5707 23.2016 21.5633C23.1168 21.5559 23.0326 21.5825 22.9674 21.6371C22.9022 21.6918 22.8614 21.7701 22.854 21.8548C22.8466 21.9395 22.8732 22.0237 22.9279 22.0888L24.1897 23.5949L24.1929 24.9105L22.754 23.5423C22.6923 23.4837 22.6098 23.452 22.5247 23.4542C22.4396 23.4564 22.3589 23.4922 22.3002 23.5538C22.2416 23.6155 22.2099 23.6979 22.212 23.7829C22.2142 23.8679 22.2501 23.9486 22.3118 24.0071L24.1968 25.7972V26.8468C23.719 26.6453 23.2688 26.3837 22.8573 26.0684C21.7663 25.2189 21.2663 24.1488 21.3735 22.889C21.6007 20.2211 23.7886 17.879 24.4849 17.1968C25.1845 17.8758 27.3839 20.207 27.6246 22.8729C27.7382 24.1322 27.2447 25.2042 26.1574 26.0595V26.0607Z" fill="white"/>
</svg>
